<svg xmlns="http://www.w3.org/2000/svg" viewBox="0 0 800 500"><rect width="1600" height="900" fill="#d4d4bd"/><path d="M0 330Q400 240 800 340V500H0Z" fill="#829375"/><path d="M80 180h220v190h-220z" fill="#c8b99b"/><path d="M65 180l125 -50 125 50z" fill="#455b4d"/><path d="M110 215h65v90h-65zM205 215h65v90h-65z" fill="#607b70"/><path d="M190 180v190" stroke="#eee3cb" stroke-width="8"/><path d="M460 100h220v190h-220z" fill="#c8b99b"/><path d="M445 100l125 -50 125 50z" fill="#455b4d"/><path d="M490 135h65v90h-65zM585 135h65v90h-65z" fill="#607b70"/><path d="M570 100v190" stroke="#eee3cb" stroke-width="8"/><circle cx="370" cy="280" r="80" fill="#5c7951"/><path d="M370 280v180" stroke="#6d6146" stroke-width="12"/></svg>