<svg xmlns="http://www.w3.org/2000/svg" viewBox="0 0 1000 800">
 <defs><pattern id="grid" width="40" height="40" patternUnits="userSpaceOnUse"><path d="M40 0H0V40" fill="none" stroke="#bec5b5" stroke-width=".7"/></pattern></defs>
 <rect width="1000" height="800" fill="#eeede6"/><rect width="1000" height="800" fill="url(#grid)"/>
 <g fill="none" stroke="#b89460" stroke-width="24"><path d="M80 400H920M500 80V720"/><path d="M180 180H820V620H180Z"/></g>
 <g fill="#d8dccc" stroke="#10201b" stroke-width="2">
  <path d="M240 220H390V330H240ZM610 220H760V330H610ZM240 480H390V580H240ZM610 480H760V580H610Z"/>
  <path d="M280 250H350V300H280ZM650 250H720V300H650ZM280 505H350V555H280ZM650 505H720V555H650Z" fill="#f7f7f3"/>
 </g>
 <g fill="#10201b" stroke="#eeede6" stroke-width="2"><rect x="430" y="195" width="140" height="140"/><rect x="430" y="465" width="140" height="140"/></g>
 <g fill="#d8dccc" stroke="#10201b" stroke-width="2"><circle cx="320" cy="400" r="46"/><circle cx="680" cy="400" r="46"/></g>
 <g font-family="Georgia,serif" font-size="26" fill="#10201b" text-anchor="middle"><text x="315" y="205">Housing</text><text x="685" y="205">Housing</text><text x="320" y="409">Together</text><text x="680" y="409">Movement</text></g>
 <g font-family="Georgia,serif" font-size="26" fill="#f7f7f3" text-anchor="middle"><text x="500" y="275">Food</text><text x="500" y="545">Primary care</text></g>
 <g font-family="sans-serif" font-size="15" letter-spacing="3" fill="#796448"><text x="80" y="70">HIVE / CELL</text><text x="80" y="750">CONCEPT / NO SCALE OR CAPACITY ESTABLISHED</text></g>
 <g stroke="#10201b" fill="none" stroke-width="2"><path d="M40 160V100H100M900 100H960V160M40 640V700H100M900 700H960V640"/></g>
</svg>
